<?xml version="1.0" encoding="utf-8"?>
<?xml-stylesheet type="text/xsl" href="rss1.xsl"?>
<rss version="2.0" xmlns:atom="http://www.w3.org/2005/Atom" xmlns:content="http://purl.org/rss/1.0/modules/content/" xmlns:dc="http://purl.org/dc/elements/1.1/" xmlns:media="http://search.yahoo.com/mrss/">
<channel>
 <title>Getty</title>
 <link>http://www.gettyimg.com/</link>
 <atom:link href="http://www.gettyimg.com/" rel="self" type="application/rss+xml" />

 
                <item>
                <title><![CDATA[【Documentaries】WEB-DL - BTS Monuments: Beyond The Star | Episode 7 &amp; 8 - 720p DSNP WEB-DL DDP5.1 H.264 - liljaa]]></title>
                <link><![CDATA[https://sharemania.us/threads/bts-monuments-beyond-the-star-episode-7-8-720p-dsnp-web-dl-ddp5-1-h-264-liljaa.235535/]]></link>
                <description><![CDATA[<article>
<blockquote class="messageText SelectQuoteContainer ugc baseHtml">
<div class="bbCodeBlock bbCodeQuote">
<aside>
<blockquote class="quoteContainer"><div class="quote"><i>BTS mark its 10th anniversary as 21st-century pop icons. Join their journey to the top and beyond.</i></div><div class="quoteExpand">Click to expand...</div></blockquote>
</aside>
</div><b>Episode 7/8 – Still Purple</b><br>
<img src="https://images2.imgbox.com/59/f7/diHpkuCb_o.jpg" class="bbCodeImage LbImage" alt="[​IMG]" data-url="https://images2.imgbox.com/59/f7/diHpkuCb_o.jpg" style=""><br>
<br>
<div class="ToggleTriggerAnchor bbCodeSpoilerContainer">
<button type="button" class="button bbCodeSpoilerButton ToggleTrigger Tooltip JsOnly" data-target="> .SpoilerTarget"><span>Spoiler: <span class="SpoilerTitle">MediaInfo</span></span></button>
<div class="SpoilerTarget bbCodeSpoilerText">MediaInfo<br>
<div class="bbCodeBlock bbCodeCode">
<div class="type">Code:</div>
<pre>General
Complete name                            : 07. BTS Monuments Beyond The Star Episode 7 – Still Purple.mp4
Format                                   : MPEG-4
Format profile                           : Base Media
Codec ID                                 : isom (isom/dby1/iso2/avc1/mp41)
File size                                : 785 MiB
Duration                                 : 30 min 14 s
Overall bit rate mode                    : Variable
Overall bit rate                         : 3 629 kb/s
Frame rate                               : 23.976 FPS
Movie name                               : BTS Monuments Beyond The Star Episode 7 – Still Purple
Performer                                : BTS
Description                              : Purple colors the entire city as BTS gives their all, knowing this stage could be their last.
Recorded date                            : 2024
Writing application                      : Lavf60.3.100
Cover                                    : Yes
Comment                                  : Download by liljaa

Video
ID                                       : 1
Format                                   : AVC
Format/Info                              : Advanced Video Codec
Format profile                           : High@L3.1
Format settings                          : CABAC / 4 Ref Frames
Format settings, CABAC                   : Yes
Format settings, Reference frames        : 4 frames
Codec ID                                 : avc1
Codec ID/Info                            : Advanced Video Coding
Duration                                 : 30 min 14 s
Bit rate mode                            : Variable
Bit rate                                 : 3 364 kb/s
Maximum bit rate                         : 6 375 kb/s
Width                                    : 1 280 pixels
Height                                   : 720 pixels
Display aspect ratio                     : 16:9
Frame rate mode                          : Constant
Frame rate                               : 23.976 (24000/1001) FPS
Color space                              : YUV
Chroma subsampling                       : 4:2:0
Bit depth                                : 8 bits
Scan type                                : Progressive
Bits/(Pixel*Frame)                       : 0.152
Time code of first frame                 : 00:00:00:0000000000
Stream size                              : 728 MiB (93%)
Title                                    : BAMTech video
Color range                              : Limited
Color primaries                          : BT.709
Transfer characteristics                 : BT.709
Matrix coefficients                      : BT.709
Codec configuration box                  : avcC

Audio
ID                                       : 3
Format                                   : E-AC-3
Format/Info                              : Enhanced AC-3
Commercial name                          : Dolby Digital Plus
Codec ID                                 : ec-3
Duration                                 : 30 min 14 s
Bit rate mode                            : Constant
Bit rate                                 : 256 kb/s
Channel(s)                               : 6 channels
Channel layout                           : L R C LFE Ls Rs
Sampling rate                            : 48.0 kHz
Frame rate                               : 31.250 FPS (1536 SPF)
Compression mode                         : Lossy
Stream size                              : 55.4 MiB (7%)
Title                                    : BAMTech audio / Korean
Language                                 : Korean
Service kind                             : Complete Main
Default                                  : Yes
Alternate group                          : 1

Text #1
ID                                       : 4
Format                                   : Timed Text
Muxing mode                              : sbtl
Codec ID                                 : tx3g
Duration                                 : 30 min 14 s
Bit rate mode                            : Variable
Bit rate                                 : 83 b/s
Frame rate                               : 0.537 FPS
Stream size                              : 18.3 KiB (0%)
Title                                    : Chinese (Traditional)
Language                                 : Chinese
Default                                  : No
Forced                                   : No
Alternate group                          : 3
Count of events                          : 487

Text #2
ID                                       : 5
Format                                   : Timed Text
Muxing mode                              : sbtl
Codec ID                                 : tx3g
Duration                                 : 30 min 14 s
Bit rate mode                            : Variable
Bit rate                                 : 87 b/s
Frame rate                               : 0.524 FPS
Stream size                              : 19.4 KiB (0%)
Title                                    : Dansk
Language                                 : Danish
Default                                  : No
Forced                                   : No
Alternate group                          : 3
Count of events                          : 475

Text #3
ID                                       : 6
Format                                   : Timed Text
Muxing mode                              : sbtl
Codec ID                                 : tx3g
Duration                                 : 30 min 14 s
Bit rate mode                            : Variable
Bit rate                                 : 88 b/s
Frame rate                               : 0.529 FPS
Stream size                              : 19.5 KiB (0%)
Title                                    : Deutsch
Language                                 : German
Default                                  : No
Forced                                   : No
Alternate group                          : 3
Count of events                          : 479

Text #4
ID                                       : 7
Format                                   : Timed Text
Muxing mode                              : sbtl
Codec ID                                 : tx3g
Duration                                 : 30 min 14 s
Bit rate mode                            : Variable
Bit rate                                 : 109 b/s
Frame rate                               : 0.594 FPS
Stream size                              : 24.2 KiB (0%)
Title                                    : English [CC]
Language                                 : English
Default                                  : No
Forced                                   : No
Alternate group                          : 3
Count of events                          : 538

Text #5
ID                                       : 8
Format                                   : Timed Text
Muxing mode                              : sbtl
Codec ID                                 : tx3g
Duration                                 : 30 min 14 s
Bit rate mode                            : Variable
Bit rate                                 : 86 b/s
Frame rate                               : 0.527 FPS
Stream size                              : 19.0 KiB (0%)
Title                                    : Español
Language                                 : Spanish
Default                                  : No
Forced                                   : No
Alternate group                          : 3
Count of events                          : 478

Text #6
ID                                       : 9
Format                                   : Timed Text
Muxing mode                              : sbtl
Codec ID                                 : tx3g
Duration                                 : 30 min 14 s
Bit rate mode                            : Variable
Bit rate                                 : 87 b/s
Frame rate                               : 0.518 FPS
Stream size                              : 19.3 KiB (0%)
Title                                    : Español (Latinoamericano)
Language                                 : Spanish
Default                                  : No
Forced                                   : No
Alternate group                          : 3
Count of events                          : 469

Text #7
ID                                       : 10
Format                                   : Timed Text
Muxing mode                              : sbtl
Codec ID                                 : tx3g
Duration                                 : 30 min 14 s
Bit rate mode                            : Variable
Bit rate                                 : 93 b/s
Frame rate                               : 0.526 FPS
Stream size                              : 20.6 KiB (0%)
Title                                    : Français
Language                                 : French
Default                                  : No
Forced                                   : No
Alternate group                          : 3
Count of events                          : 477

Text #8
ID                                       : 11
Format                                   : Timed Text
Muxing mode                              : sbtl
Codec ID                                 : tx3g
Duration                                 : 30 min 14 s
Bit rate mode                            : Variable
Bit rate                                 : 140 b/s
Frame rate                               : 0.529 FPS
Stream size                              : 31.1 KiB (0%)
Title                                    : Greek
Language                                 : Greek
Default                                  : No
Forced                                   : No
Alternate group                          : 3
Count of events                          : 479

Text #9
ID                                       : 12
Format                                   : Timed Text
Muxing mode                              : sbtl
Codec ID                                 : tx3g
Duration                                 : 30 min 14 s
Bit rate mode                            : Variable
Bit rate                                 : 83 b/s
Frame rate                               : 0.527 FPS
Stream size                              : 18.4 KiB (0%)
Title                                    : Italiano
Language                                 : Italian
Default                                  : No
Forced                                   : No
Alternate group                          : 3
Count of events                          : 478

Text #10
ID                                       : 13
Format                                   : Timed Text
Muxing mode                              : sbtl
Codec ID                                 : tx3g
Duration                                 : 30 min 14 s
Bit rate mode                            : Variable
Bit rate                                 : 88 b/s
Frame rate                               : 0.489 FPS
Stream size                              : 19.4 KiB (0%)
Title                                    : Japanese
Language                                 : Japanese
Default                                  : No
Forced                                   : No
Alternate group                          : 3
Count of events                          : 444

Text #11
ID                                       : 14
Format                                   : Timed Text
Muxing mode                              : sbtl
Codec ID                                 : tx3g
Duration                                 : 30 min 14 s
Bit rate mode                            : Variable
Bit rate                                 : 2 b/s
Frame rate                               : 0.012 FPS
Stream size                              : 452 Bytes (0%)
Title                                    : ko--forced--
Language                                 : Korean
Default                                  : No
Forced                                   : No
Alternate group                          : 3
Count of events                          : 10

Text #12
ID                                       : 15
Format                                   : Timed Text
Muxing mode                              : sbtl
Codec ID                                 : tx3g
Duration                                 : 30 min 14 s
Bit rate mode                            : Variable
Bit rate                                 : 115 b/s
Frame rate                               : 0.618 FPS
Stream size                              : 25.4 KiB (0%)
Title                                    : Korean [CC]
Language                                 : Korean
Default                                  : No
Forced                                   : No
Alternate group                          : 3
Count of events                          : 560

Text #13
ID                                       : 16
Format                                   : Timed Text
Muxing mode                              : sbtl
Codec ID                                 : tx3g
Duration                                 : 30 min 14 s
Bit rate mode                            : Variable
Bit rate                                 : 93 b/s
Frame rate                               : 0.527 FPS
Stream size                              : 20.6 KiB (0%)
Title                                    : Magyar
Language                                 : Hungarian
Default                                  : No
Forced                                   : No
Alternate group                          : 3
Count of events                          : 478

Text #14
ID                                       : 17
Format                                   : Timed Text
Muxing mode                              : sbtl
Codec ID                                 : tx3g
Duration                                 : 30 min 14 s
Bit rate mode                            : Variable
Bit rate                                 : 89 b/s
Frame rate                               : 0.530 FPS
Stream size                              : 19.7 KiB (0%)
Title                                    : Nederlands
Language                                 : Dutch
Default                                  : No
Forced                                   : No
Alternate group                          : 3
Count of events                          : 480

Text #15
ID                                       : 18
Format                                   : Timed Text
Muxing mode                              : sbtl
Codec ID                                 : tx3g
Duration                                 : 30 min 14 s
Bit rate mode                            : Variable
Bit rate                                 : 86 b/s
Frame rate                               : 0.525 FPS
Stream size                              : 19.0 KiB (0%)
Title                                    : Norsk
Language                                 : Norwegian
Default                                  : No
Forced                                   : No
Alternate group                          : 3
Count of events                          : 476

Text #16
ID                                       : 19
Format                                   : Timed Text
Muxing mode                              : sbtl
Codec ID                                 : tx3g
Duration                                 : 30 min 14 s
Bit rate mode                            : Variable
Bit rate                                 : 83 b/s
Frame rate                               : 0.527 FPS
Stream size                              : 18.3 KiB (0%)
Title                                    : Polski
Language                                 : Polish
Default                                  : No
Forced                                   : No
Alternate group                          : 3
Count of events                          : 478

Text #17
ID                                       : 20
Format                                   : Timed Text
Muxing mode                              : sbtl
Codec ID                                 : tx3g
Duration                                 : 30 min 14 s
Bit rate mode                            : Variable
Bit rate                                 : 83 b/s
Frame rate                               : 0.527 FPS
Stream size                              : 18.3 KiB (0%)
Title                                    : Português
Language                                 : Portuguese
Default                                  : No
Forced                                   : No
Alternate group                          : 3
Count of events                          : 478

Text #18
ID                                       : 21
Format                                   : Timed Text
Muxing mode                              : sbtl
Codec ID                                 : tx3g
Duration                                 : 30 min 14 s
Bit rate mode                            : Variable
Bit rate                                 : 80 b/s
Frame rate                               : 0.527 FPS
Stream size                              : 17.8 KiB (0%)
Title                                    : Português (Brasil)
Language                                 : Portuguese
Default                                  : No
Forced                                   : No
Alternate group                          : 3
Count of events                          : 478

Text #19
ID                                       : 22
Format                                   : Timed Text
Muxing mode                              : sbtl
Codec ID                                 : tx3g
Duration                                 : 30 min 14 s
Bit rate mode                            : Variable
Bit rate                                 : 91 b/s
Frame rate                               : 0.526 FPS
Stream size                              : 20.1 KiB (0%)
Title                                    : Română
Language                                 : Romanian
Default                                  : No
Forced                                   : No
Alternate group                          : 3
Count of events                          : 477

Text #20
ID                                       : 23
Format                                   : Timed Text
Muxing mode                              : sbtl
Codec ID                                 : tx3g
Duration                                 : 30 min 14 s
Bit rate mode                            : Variable
Bit rate                                 : 95 b/s
Frame rate                               : 0.526 FPS
Stream size                              : 21.0 KiB (0%)
Title                                    : Slovenčina
Language                                 : Slovak
Default                                  : No
Forced                                   : No
Alternate group                          : 3
Count of events                          : 477

Text #21
ID                                       : 24
Format                                   : Timed Text
Muxing mode                              : sbtl
Codec ID                                 : tx3g
Duration                                 : 30 min 14 s
Bit rate mode                            : Variable
Bit rate                                 : 85 b/s
Frame rate                               : 0.530 FPS
Stream size                              : 18.9 KiB (0%)
Title                                    : Suomi
Language                                 : Finnish
Default                                  : No
Forced                                   : No
Alternate group                          : 3
Count of events                          : 480

Text #22
ID                                       : 25
Format                                   : Timed Text
Muxing mode                              : sbtl
Codec ID                                 : tx3g
Duration                                 : 30 min 14 s
Bit rate mode                            : Variable
Bit rate                                 : 80 b/s
Frame rate                               : 0.524 FPS
Stream size                              : 17.6 KiB (0%)
Title                                    : Svenska
Language                                 : Swedish
Default                                  : Yes
Forced                                   : No
Alternate group                          : 3
Count of events                          : 475

Text #23
ID                                       : 26
Format                                   : Timed Text
Muxing mode                              : sbtl
Codec ID                                 : tx3g
Duration                                 : 30 min 14 s
Bit rate mode                            : Variable
Bit rate                                 : 88 b/s
Frame rate                               : 0.524 FPS
Stream size                              : 19.5 KiB (0%)
Title                                    : Türkçe
Language                                 : Turkish
Default                                  : No
Forced                                   : No
Alternate group                          : 3
Count of events                          : 475

Text #24
ID                                       : 27
Format                                   : Timed Text
Muxing mode                              : sbtl
Codec ID                                 : tx3g
Duration                                 : 30 min 14 s
Bit rate mode                            : Variable
Bit rate                                 : 86 b/s
Frame rate                               : 0.526 FPS
Stream size                              : 19.1 KiB (0%)
Title                                    : Čeština
Language                                 : Czech
Default                                  : No
Forced                                   : No
Alternate group                          : 3
Count of events                          : 477
</pre>
</div></div>
</div><br>
<b>Episode 8/8 – Promise For Tomorrow</b><br>
<img src="https://images2.imgbox.com/17/c0/ICGEkhCn_o.jpg" class="bbCodeImage LbImage" alt="[​IMG]" data-url="https://images2.imgbox.com/17/c0/ICGEkhCn_o.jpg" style=""><br>
<br>
<div class="ToggleTriggerAnchor bbCodeSpoilerContainer">
<button type="button" class="button bbCodeSpoilerButton ToggleTrigger Tooltip JsOnly" data-target="> .SpoilerTarget"><span>Spoiler: <span class="SpoilerTitle">MediaInfo</span></span></button>
<div class="SpoilerTarget bbCodeSpoilerText">MediaInfo<br>
<div class="bbCodeBlock bbCodeCode">
<div class="type">Code:</div>
<pre>General
Complete name                            : 08. BTS Monuments Beyond The Star Episode 8 – Promise For Tomorrow.mp4
Format                                   : MPEG-4
Format profile                           : Base Media
Codec ID                                 : isom (isom/dby1/iso2/avc1/mp41)
File size                                : 811 MiB
Duration                                 : 32 min 13 s
Overall bit rate mode                    : Variable
Overall bit rate                         : 3 519 kb/s
Frame rate                               : 23.976 FPS
Movie name                               : BTS Monuments Beyond The Star Episode 8 – Promise For Tomorrow
Performer                                : BTS
Description                              : BTS closes the first chapter of its youth. Members prepare for a future reunion in their own ways.
Recorded date                            : 2024
Writing application                      : Lavf60.3.100
Cover                                    : Yes
Comment                                  : Download by liljaa

Video
ID                                       : 1
Format                                   : AVC
Format/Info                              : Advanced Video Codec
Format profile                           : High@L3.1
Format settings                          : CABAC / 4 Ref Frames
Format settings, CABAC                   : Yes
Format settings, Reference frames        : 4 frames
Codec ID                                 : avc1
Codec ID/Info                            : Advanced Video Coding
Duration                                 : 32 min 13 s
Bit rate mode                            : Variable
Bit rate                                 : 3 254 kb/s
Maximum bit rate                         : 6 375 kb/s
Width                                    : 1 280 pixels
Height                                   : 720 pixels
Display aspect ratio                     : 16:9
Frame rate mode                          : Constant
Frame rate                               : 23.976 (24000/1001) FPS
Color space                              : YUV
Chroma subsampling                       : 4:2:0
Bit depth                                : 8 bits
Scan type                                : Progressive
Bits/(Pixel*Frame)                       : 0.147
Time code of first frame                 : 00:00:00:0000000000
Stream size                              : 750 MiB (92%)
Title                                    : BAMTech video
Color range                              : Limited
Color primaries                          : BT.709
Transfer characteristics                 : BT.709
Matrix coefficients                      : BT.709
Codec configuration box                  : avcC

Audio
ID                                       : 3
Format                                   : E-AC-3
Format/Info                              : Enhanced AC-3
Commercial name                          : Dolby Digital Plus
Codec ID                                 : ec-3
Duration                                 : 32 min 13 s
Bit rate mode                            : Constant
Bit rate                                 : 256 kb/s
Channel(s)                               : 6 channels
Channel layout                           : L R C LFE Ls Rs
Sampling rate                            : 48.0 kHz
Frame rate                               : 31.250 FPS (1536 SPF)
Compression mode                         : Lossy
Stream size                              : 59.0 MiB (7%)
Title                                    : BAMTech audio / Korean
Language                                 : Korean
Service kind                             : Complete Main
Default                                  : Yes
Alternate group                          : 1

Text #1
ID                                       : 4
Format                                   : Timed Text
Muxing mode                              : sbtl
Codec ID                                 : tx3g
Duration                                 : 32 min 12 s
Bit rate mode                            : Variable
Bit rate                                 : 82 b/s
Frame rate                               : 0.509 FPS
Stream size                              : 19.3 KiB (0%)
Title                                    : Chinese (Traditional)
Language                                 : Chinese
Default                                  : Yes
Forced                                   : No
Alternate group                          : 3
Count of events                          : 491

Text #2
ID                                       : 5
Format                                   : Timed Text
Muxing mode                              : sbtl
Codec ID                                 : tx3g
Duration                                 : 32 min 12 s
Bit rate mode                            : Variable
Bit rate                                 : 87 b/s
Frame rate                               : 0.506 FPS
Stream size                              : 20.4 KiB (0%)
Title                                    : Dansk
Language                                 : Danish
Default                                  : No
Forced                                   : No
Alternate group                          : 3
Count of events                          : 489

Text #3
ID                                       : 6
Format                                   : Timed Text
Muxing mode                              : sbtl
Codec ID                                 : tx3g
Duration                                 : 32 min 12 s
Bit rate mode                            : Variable
Bit rate                                 : 88 b/s
Frame rate                               : 0.504 FPS
Stream size                              : 20.8 KiB (0%)
Title                                    : Deutsch
Language                                 : German
Default                                  : No
Forced                                   : No
Alternate group                          : 3
Count of events                          : 487

Text #4
ID                                       : 7
Format                                   : Timed Text
Muxing mode                              : sbtl
Codec ID                                 : tx3g
Duration                                 : 32 min 12 s
Bit rate mode                            : Variable
Bit rate                                 : 99 b/s
Frame rate                               : 0.564 FPS
Stream size                              : 23.3 KiB (0%)
Title                                    : English [CC]
Language                                 : English
Default                                  : No
Forced                                   : No
Alternate group                          : 3
Count of events                          : 545

Text #5
ID                                       : 8
Format                                   : Timed Text
Muxing mode                              : sbtl
Codec ID                                 : tx3g
Duration                                 : 32 min 12 s
Bit rate mode                            : Variable
Bit rate                                 : 85 b/s
Frame rate                               : 0.509 FPS
Stream size                              : 20.0 KiB (0%)
Title                                    : Español
Language                                 : Spanish
Default                                  : No
Forced                                   : No
Alternate group                          : 3
Count of events                          : 491

Text #6
ID                                       : 9
Format                                   : Timed Text
Muxing mode                              : sbtl
Codec ID                                 : tx3g
Duration                                 : 32 min 12 s
Bit rate mode                            : Variable
Bit rate                                 : 87 b/s
Frame rate                               : 0.502 FPS
Stream size                              : 20.6 KiB (0%)
Title                                    : Español (Latinoamericano)
Language                                 : Spanish
Default                                  : No
Forced                                   : No
Alternate group                          : 3
Count of events                          : 485

Text #7
ID                                       : 10
Format                                   : Timed Text
Muxing mode                              : sbtl
Codec ID                                 : tx3g
Duration                                 : 32 min 12 s
Bit rate mode                            : Variable
Bit rate                                 : 91 b/s
Frame rate                               : 0.506 FPS
Stream size                              : 21.5 KiB (0%)
Title                                    : Français
Language                                 : French
Default                                  : No
Forced                                   : No
Alternate group                          : 3
Count of events                          : 489

Text #8
ID                                       : 11
Format                                   : Timed Text
Muxing mode                              : sbtl
Codec ID                                 : tx3g
Duration                                 : 32 min 12 s
Bit rate mode                            : Variable
Bit rate                                 : 139 b/s
Frame rate                               : 0.509 FPS
Stream size                              : 32.8 KiB (0%)
Title                                    : Greek
Language                                 : Greek
Default                                  : No
Forced                                   : No
Alternate group                          : 3
Count of events                          : 491

Text #9
ID                                       : 12
Format                                   : Timed Text
Muxing mode                              : sbtl
Codec ID                                 : tx3g
Duration                                 : 32 min 12 s
Bit rate mode                            : Variable
Bit rate                                 : 83 b/s
Frame rate                               : 0.506 FPS
Stream size                              : 19.5 KiB (0%)
Title                                    : Italiano
Language                                 : Italian
Default                                  : No
Forced                                   : No
Alternate group                          : 3
Count of events                          : 489

Text #10
ID                                       : 13
Format                                   : Timed Text
Muxing mode                              : sbtl
Codec ID                                 : tx3g
Duration                                 : 32 min 12 s
Bit rate mode                            : Variable
Bit rate                                 : 92 b/s
Frame rate                               : 0.485 FPS
Stream size                              : 21.7 KiB (0%)
Title                                    : Japanese
Language                                 : Japanese
Default                                  : No
Forced                                   : No
Alternate group                          : 3
Count of events                          : 471

Text #11
ID                                       : 14
Format                                   : Timed Text
Muxing mode                              : sbtl
Codec ID                                 : tx3g
Duration                                 : 32 min 12 s
Bit rate mode                            : Variable
Bit rate                                 : 1 b/s
Frame rate                               : 0.009 FPS
Stream size                              : 296 Bytes (0%)
Title                                    : ko--forced--
Language                                 : Korean
Default                                  : No
Forced                                   : No
Alternate group                          : 3
Count of events                          : 8

Text #12
ID                                       : 15
Format                                   : Timed Text
Muxing mode                              : sbtl
Codec ID                                 : tx3g
Duration                                 : 32 min 12 s
Bit rate mode                            : Variable
Bit rate                                 : 112 b/s
Frame rate                               : 0.597 FPS
Stream size                              : 26.5 KiB (0%)
Title                                    : Korean [CC]
Language                                 : Korean
Default                                  : No
Forced                                   : No
Alternate group                          : 3
Count of events                          : 576

Text #13
ID                                       : 16
Format                                   : Timed Text
Muxing mode                              : sbtl
Codec ID                                 : tx3g
Duration                                 : 32 min 12 s
Bit rate mode                            : Variable
Bit rate                                 : 92 b/s
Frame rate                               : 0.509 FPS
Stream size                              : 21.7 KiB (0%)
Title                                    : Magyar
Language                                 : Hungarian
Default                                  : No
Forced                                   : No
Alternate group                          : 3
Count of events                          : 491

Text #14
ID                                       : 17
Format                                   : Timed Text
Muxing mode                              : sbtl
Codec ID                                 : tx3g
Duration                                 : 32 min 12 s
Bit rate mode                            : Variable
Bit rate                                 : 88 b/s
Frame rate                               : 0.509 FPS
Stream size                              : 20.7 KiB (0%)
Title                                    : Nederlands
Language                                 : Dutch
Default                                  : No
Forced                                   : No
Alternate group                          : 3
Count of events                          : 491

Text #15
ID                                       : 18
Format                                   : Timed Text
Muxing mode                              : sbtl
Codec ID                                 : tx3g
Duration                                 : 32 min 12 s
Bit rate mode                            : Variable
Bit rate                                 : 84 b/s
Frame rate                               : 0.506 FPS
Stream size                              : 19.9 KiB (0%)
Title                                    : Norsk
Language                                 : Norwegian
Default                                  : No
Forced                                   : No
Alternate group                          : 3
Count of events                          : 489

Text #16
ID                                       : 19
Format                                   : Timed Text
Muxing mode                              : sbtl
Codec ID                                 : tx3g
Duration                                 : 32 min 12 s
Bit rate mode                            : Variable
Bit rate                                 : 85 b/s
Frame rate                               : 0.509 FPS
Stream size                              : 20.0 KiB (0%)
Title                                    : Polski
Language                                 : Polish
Default                                  : No
Forced                                   : No
Alternate group                          : 3
Count of events                          : 491

Text #17
ID                                       : 20
Format                                   : Timed Text
Muxing mode                              : sbtl
Codec ID                                 : tx3g
Duration                                 : 32 min 12 s
Bit rate mode                            : Variable
Bit rate                                 : 84 b/s
Frame rate                               : 0.509 FPS
Stream size                              : 19.7 KiB (0%)
Title                                    : Português
Language                                 : Portuguese
Default                                  : No
Forced                                   : No
Alternate group                          : 3
Count of events                          : 491

Text #18
ID                                       : 21
Format                                   : Timed Text
Muxing mode                              : sbtl
Codec ID                                 : tx3g
Duration                                 : 32 min 12 s
Bit rate mode                            : Variable
Bit rate                                 : 83 b/s
Frame rate                               : 0.505 FPS
Stream size                              : 19.6 KiB (0%)
Title                                    : Português (Brasil)
Language                                 : Portuguese
Default                                  : No
Forced                                   : No
Alternate group                          : 3
Count of events                          : 488

Text #19
ID                                       : 22
Format                                   : Timed Text
Muxing mode                              : sbtl
Codec ID                                 : tx3g
Duration                                 : 32 min 12 s
Bit rate mode                            : Variable
Bit rate                                 : 90 b/s
Frame rate                               : 0.509 FPS
Stream size                              : 21.1 KiB (0%)
Title                                    : Română
Language                                 : Romanian
Default                                  : No
Forced                                   : No
Alternate group                          : 3
Count of events                          : 491

Text #20
ID                                       : 23
Format                                   : Timed Text
Muxing mode                              : sbtl
Codec ID                                 : tx3g
Duration                                 : 32 min 12 s
Bit rate mode                            : Variable
Bit rate                                 : 94 b/s
Frame rate                               : 0.509 FPS
Stream size                              : 22.2 KiB (0%)
Title                                    : Slovenčina
Language                                 : Slovak
Default                                  : No
Forced                                   : No
Alternate group                          : 3
Count of events                          : 491

Text #21
ID                                       : 24
Format                                   : Timed Text
Muxing mode                              : sbtl
Codec ID                                 : tx3g
Duration                                 : 32 min 12 s
Bit rate mode                            : Variable
Bit rate                                 : 85 b/s
Frame rate                               : 0.509 FPS
Stream size                              : 20.0 KiB (0%)
Title                                    : Suomi
Language                                 : Finnish
Default                                  : No
Forced                                   : No
Alternate group                          : 3
Count of events                          : 491

Text #22
ID                                       : 25
Format                                   : Timed Text
Muxing mode                              : sbtl
Codec ID                                 : tx3g
Duration                                 : 32 min 12 s
Bit rate mode                            : Variable
Bit rate                                 : 79 b/s
Frame rate                               : 0.508 FPS
Stream size                              : 18.7 KiB (0%)
Title                                    : Svenska
Language                                 : Swedish
Default                                  : No
Forced                                   : No
Alternate group                          : 3
Count of events                          : 490

Text #23
ID                                       : 26
Format                                   : Timed Text
Muxing mode                              : sbtl
Codec ID                                 : tx3g
Duration                                 : 32 min 12 s
Bit rate mode                            : Variable
Bit rate                                 : 89 b/s
Frame rate                               : 0.506 FPS
Stream size                              : 21.1 KiB (0%)
Title                                    : Türkçe
Language                                 : Turkish
Default                                  : No
Forced                                   : No
Alternate group                          : 3
Count of events                          : 489

Text #24
ID                                       : 27
Format                                   : Timed Text
Muxing mode                              : sbtl
Codec ID                                 : tx3g
Duration                                 : 32 min 12 s
Bit rate mode                            : Variable
Bit rate                                 : 87 b/s
Frame rate                               : 0.509 FPS
Stream size                              : 20.4 KiB (0%)
Title                                    : Čeština
Language                                 : Czech
Default                                  : No
Forced                                   : No
Alternate group                          : 3
Count of events                          : 491
</pre>
</div></div>
</div><br>
<a href="https://sharemania.us/threads/bts-monuments-beyond-the-star-episode-1-2-720p-dsnp-web-dl-ddp5-1-h-264-liljaa.234312/" class="internalLink">Episode 1 &amp; 2</a> <br>
<a href="https://sharemania.us/threads/bts-monuments-beyond-the-star-episode-3-4-720p-dsnp-web-dl-ddp5-1-h-264-liljaa.234758/" class="internalLink">Episode 3 &amp; 4</a><br>
<a href="https://sharemania.us/threads/bts-monuments-beyond-the-star-episode-5-6-720p-dsnp-web-dl-ddp5-1-h-264-liljaa.235158/" class="internalLink">Episode 5 &amp; 6</a><br>
<br>
<div class="bbCodeBlock bbCodeVfcHH HiddenContent">
<div class="attribution type">Hidden Content:</div>
<blockquote>You must either reply or click 'Like' to see the hidden information contained here.</blockquote>
</div>
<div class="messageTextEndMarker">&nbsp;</div>
</blockquote>
</article>]]></description>
                <author><![CDATA[Liljaa]]></author>
                </item>

                </channel></rss>